<svg width="48" height="30" viewBox="0 0 48 30" fill="none" xmlns="http://www.w3.org/2000/svg">
<path d="M31.2344 29.8149C30.9543 29.8374 30.6714 29.8487 30.3858 29.8489H10.4589C9.08724 29.854 7.72809 29.5883 6.45939 29.0669C5.19069 28.5456 4.03741 27.7788 3.0657 26.8108C2.094 25.8427 1.32299 24.6922 0.796899 23.4255C0.270811 22.1588 0 20.8006 0 19.429C0 18.0573 0.270811 16.6992 0.796899 15.4324C1.32299 14.1657 2.094 13.0153 3.0657 12.0472C4.03741 11.0791 5.19069 10.3124 6.45939 9.791C7.72809 9.26964 9.08724 9.00389 10.4589 9.00901H17.8886C20.2974 3.70938 25.8451 0 32.3036 0C40.9724 0 48 6.68195 48 14.9245C48 23.167 40.9724 29.8489 32.3036 29.8489C31.9443 29.8489 31.5879 29.8376 31.2344 29.8149Z" fill="url(#paint0_linear_2_53)"/>
<defs>
<linearGradient id="paint0_linear_2_53" x1="19.44" y1="3.76097" x2="29.0093" y2="31.4671" gradientUnits="userSpaceOnUse">
<stop stop-color="white" stop-opacity="0.596"/>
<stop offset="1" stop-color="#F7F7F7" stop-opacity="0.204"/>
</linearGradient>
</defs>
</svg>
