<svg width="45" height="33" viewBox="0 0 45 33" fill="none" xmlns="http://www.w3.org/2000/svg">
<path d="M11.7292 32.1667C8.75902 32.1667 6.22167 31.1386 4.11712 29.0823C2.01256 27.0261 0.959634 24.5129 0.958328 21.5427C0.958328 18.9969 1.72534 16.7285 3.25937 14.7375C4.7934 12.7465 6.80069 11.4736 9.28124 10.9188C10.0972 7.91598 11.7292 5.48439 14.1771 3.62397C16.625 1.76355 19.3993 0.833344 22.5 0.833344C26.3187 0.833344 29.5585 2.1637 32.2192 4.82443C34.8799 7.48515 36.2096 10.7242 36.2083 14.5417C38.4604 14.8028 40.3293 15.7741 41.815 17.4557C43.3008 19.1372 44.043 21.1034 44.0417 23.3542C44.0417 25.8021 43.1852 27.8831 41.4723 29.5973C39.7594 31.3115 37.6784 32.168 35.2292 32.1667H11.7292ZM11.7292 28.25H35.2292C36.6 28.25 37.7587 27.7767 38.7052 26.8302C39.6517 25.8837 40.125 24.725 40.125 23.3542C40.125 21.9833 39.6517 20.8247 38.7052 19.8781C37.7587 18.9316 36.6 18.4583 35.2292 18.4583H32.2917V14.5417C32.2917 11.8326 31.3366 9.52312 29.4266 7.61309C27.5166 5.70307 25.2077 4.7487 22.5 4.75001C19.7923 4.75132 17.4834 5.70633 15.5734 7.61505C13.6633 9.52377 12.7083 11.8326 12.7083 14.5417H11.7292C9.83611 14.5417 8.22048 15.2108 6.88229 16.549C5.54409 17.8872 4.87499 19.5028 4.87499 21.3958C4.87499 23.2889 5.54409 24.9045 6.88229 26.2427C8.22048 27.5809 9.83611 28.25 11.7292 28.25Z" fill="#F8F8F8"/>
</svg>
