<svg width="49" height="38" viewBox="0 0 49 38" fill="none" xmlns="http://www.w3.org/2000/svg">
<g filter="url(#filter0_f_2_113)">
<path d="M16.1386 26.159C16.2041 26.2189 14.8326 29.1689 14.0356 30.0857C13.2386 31.0025 12.2582 31.4553 11.846 31.097C11.4338 30.7387 11.7457 29.7049 12.5427 28.7881C13.3396 27.8713 16.073 26.0992 16.1386 26.159Z" fill="#42A0F0"/>
<path d="M12.6846 29.4039C12.7647 29.532 13.0419 29.5033 13.3037 29.3396C13.5656 29.176 13.7129 28.9395 13.6328 28.8114C13.5528 28.6832 13.2756 28.712 13.0137 28.8756C12.7519 29.0392 12.6045 29.2758 12.6846 29.4039Z" fill="white"/>
<path d="M24.5643 26.159C24.6298 26.2189 23.2583 29.1689 22.4613 30.0857C21.6644 31.0025 20.684 31.4553 20.2718 31.097C19.8595 30.7387 20.1714 29.7049 20.9684 28.7881C21.7654 27.8713 24.4987 26.0992 24.5643 26.159Z" fill="#42A0F0"/>
<path d="M21.1103 29.4039C21.1904 29.532 21.4676 29.5033 21.7294 29.3396C21.9913 29.176 22.1386 28.9395 22.0586 28.8114C21.9785 28.6832 21.7013 28.712 21.4395 28.8756C21.1776 29.0392 21.0303 29.2758 21.1103 29.4039Z" fill="white"/>
<path d="M32.9901 26.159C33.0555 26.2189 31.6841 29.1689 30.8871 30.0857C30.0901 31.0025 29.1097 31.4553 28.6975 31.097C28.2853 30.7387 28.5972 29.7049 29.3941 28.7881C30.1911 27.8713 32.9245 26.0992 32.9901 26.159Z" fill="#42A0F0"/>
<path d="M29.5361 29.4039C29.6161 29.532 29.8933 29.5033 30.1552 29.3396C30.417 29.176 30.5644 28.9395 30.4843 28.8114C30.4042 28.6832 30.1271 28.712 29.8652 28.8756C29.6034 29.0392 29.456 29.2758 29.5361 29.4039Z" fill="white"/>
<path d="M25.5556 32.3544C25.6211 32.4142 24.2496 35.3643 23.4526 36.2811C22.6556 37.1979 21.6752 37.6507 21.263 37.2924C20.8508 36.9341 21.1627 35.9003 21.9597 34.9835C22.7566 34.0666 25.49 32.2946 25.5556 32.3544Z" fill="#42A0F0"/>
<path d="M22.1016 35.5993C22.1817 35.7274 22.4589 35.6987 22.7207 35.535C22.9826 35.3714 23.1299 35.1349 23.0498 35.0067C22.9698 34.8786 22.6926 34.9074 22.4307 35.071C22.1689 35.2346 22.0215 35.4711 22.1016 35.5993Z" fill="white"/>
<path d="M16.1386 32.3544C16.2041 32.4142 14.8326 35.3643 14.0356 36.2811C13.2386 37.1979 12.2582 37.6507 11.846 37.2924C11.4338 36.9341 11.7457 35.9003 12.5427 34.9835C13.3396 34.0666 16.073 32.2946 16.1386 32.3544Z" fill="#42A0F0"/>
<path d="M12.6846 35.5993C12.7647 35.7274 13.0419 35.6987 13.3037 35.535C13.5656 35.3714 13.7129 35.1349 13.6328 35.0067C13.5528 34.8786 13.2756 34.9074 13.0137 35.071C12.7519 35.2346 12.6045 35.4711 12.6846 35.5993Z" fill="white"/>
</g>
<g filter="url(#filter1_df_2_113)">
<g filter="url(#filter2_d_2_113)">
<path d="M29.7098 29.4959C29.4703 29.5151 29.2284 29.5248 28.9841 29.525H11.9438C10.7709 29.5294 9.6086 29.3021 8.52369 28.8563C7.43877 28.4105 6.45255 27.7548 5.62161 26.927C4.79066 26.0991 4.13134 25.1153 3.68146 24.0321C3.23158 22.9488 3 21.7874 3 20.6145C3 19.4415 3.23158 18.2801 3.68146 17.1969C4.13134 16.1136 4.79066 15.1299 5.62161 14.302C6.45255 13.4742 7.43877 12.8185 8.52369 12.3727C9.6086 11.9268 10.7709 11.6996 11.9438 11.704H18.2973C20.3571 7.17204 25.1012 4 30.6241 4C38.0372 4 44.0467 9.71401 44.0467 16.7625C44.0467 23.811 38.0372 29.525 30.6241 29.525C30.3169 29.525 30.0121 29.5153 29.7098 29.4959Z" fill="url(#paint0_linear_2_113)"/>
<path d="M30.6241 29.4011C31.5269 29.4011 32.4291 29.3146 33.3056 29.1441C34.1597 28.9779 34.9998 28.73 35.8026 28.4071C36.5907 28.0902 37.3508 27.6979 38.0618 27.2411C38.766 26.7888 39.4282 26.2693 40.0299 25.6971C40.6316 25.1251 41.1778 24.4957 41.6534 23.8263C42.1334 23.1508 42.5456 22.4286 42.8787 21.6799C43.2179 20.9174 43.4783 20.1196 43.6529 19.3085C43.832 18.4762 43.9228 17.6196 43.9228 16.7625C43.9228 15.9053 43.832 15.0487 43.6529 14.2165C43.4783 13.4054 43.2179 12.6076 42.8787 11.8451C42.5456 11.0964 42.1334 10.3742 41.6534 9.69865C41.1778 9.02934 40.6316 8.39992 40.03 7.82787C39.4282 7.25571 38.766 6.73625 38.0618 6.28391C37.3508 5.82717 36.5907 5.43487 35.8026 5.11792C34.9998 4.79507 34.1597 4.54711 33.3056 4.38093C32.4291 4.21039 31.5269 4.12392 30.6241 4.12392C27.9761 4.12392 25.4187 4.86146 23.2285 6.2568C22.1728 6.92941 21.2241 7.74127 20.4087 8.66983C19.5883 9.60425 18.9158 10.6423 18.41 11.7552L18.377 11.8278H18.2972H11.9438C10.7575 11.8278 9.60685 12.0601 8.52367 12.5183C8.00305 12.7385 7.5009 13.0111 7.03118 13.3284C6.56589 13.6427 6.12834 14.0038 5.7307 14.4014C5.33305 14.799 4.97204 15.2366 4.65769 15.7019C4.34035 16.1716 4.0678 16.6738 3.84759 17.1944C3.38944 18.2776 3.15714 19.4282 3.15714 20.6145C3.15714 21.8007 3.38944 22.9514 3.84759 24.0346C4.0678 24.5552 4.34035 25.0574 4.65769 25.5271C4.97204 25.9924 5.33305 26.4299 5.7307 26.8276C6.12834 27.2252 6.56589 27.5862 7.03118 27.9006C7.5009 28.2179 8.00305 28.4905 8.52367 28.7107C9.60685 29.1688 10.7575 29.4011 11.9438 29.4011H28.9841C29.2224 29.4011 29.4632 29.3914 29.6999 29.3724L29.7089 29.3717L29.7178 29.3722C30.0176 29.3914 30.3225 29.4011 30.6241 29.4011ZM30.6241 29.525C30.3169 29.525 30.012 29.5152 29.7099 29.4959C29.4707 29.5152 29.2283 29.525 28.9841 29.525H11.9438C7.02264 29.525 3.03323 25.5356 3.03323 20.6145C3.03323 15.6933 7.02264 11.7039 11.9438 11.7039H18.2972C20.3571 7.17148 25.1009 4.00001 30.6241 4.00001C38.0372 4.00001 44.0467 9.71403 44.0467 16.7625C44.0467 23.811 38.0372 29.525 30.6241 29.525Z" fill="white" fill-opacity="0.5"/>
</g>
</g>
<defs>
<filter id="filter0_f_2_113" x="11.1684" y="25.6619" width="22.3195" height="12.2489" filterUnits="userSpaceOnUse" color-interpolation-filters="sRGB">
<feFlood flood-opacity="0" result="BackgroundImageFix"/>
<feBlend mode="normal" in="SourceGraphic" in2="BackgroundImageFix" result="shape"/>
<feGaussianBlur stdDeviation="0.247816" result="effect1_foregroundBlur_2_113"/>
</filter>
<filter id="filter1_df_2_113" x="2.50437" y="3.50437" width="42.038" height="27.012" filterUnits="userSpaceOnUse" color-interpolation-filters="sRGB">
<feFlood flood-opacity="0" result="BackgroundImageFix"/>
<feColorMatrix in="SourceAlpha" type="matrix" values="0 0 0 0 0 0 0 0 0 0 0 0 0 0 0 0 0 0 127 0" result="hardAlpha"/>
<feOffset dy="0.495631"/>
<feGaussianBlur stdDeviation="0.247816"/>
<feColorMatrix type="matrix" values="0 0 0 0 0 0 0 0 0 0 0 0 0 0 0 0 0 0 0.25 0"/>
<feBlend mode="normal" in2="BackgroundImageFix" result="effect1_dropShadow_2_113"/>
<feBlend mode="normal" in="SourceGraphic" in2="effect1_dropShadow_2_113" result="shape"/>
<feGaussianBlur stdDeviation="0.247816" result="effect2_foregroundBlur_2_113"/>
</filter>
<filter id="filter2_d_2_113" x="0.521844" y="0.530582" width="48.4812" height="32.9595" filterUnits="userSpaceOnUse" color-interpolation-filters="sRGB">
<feFlood flood-opacity="0" result="BackgroundImageFix"/>
<feColorMatrix in="SourceAlpha" type="matrix" values="0 0 0 0 0 0 0 0 0 0 0 0 0 0 0 0 0 0 127 0" result="hardAlpha"/>
<feOffset dx="1.23908" dy="0.247816"/>
<feGaussianBlur stdDeviation="1.85862"/>
<feColorMatrix type="matrix" values="0 0 0 0 0.501961 0 0 0 0 0.501961 0 0 0 0 0.501961 0 0 0 0.302 0"/>
<feBlend mode="normal" in2="BackgroundImageFix" result="effect1_dropShadow_2_113"/>
<feBlend mode="normal" in="SourceGraphic" in2="effect1_dropShadow_2_113" result="shape"/>
</filter>
<linearGradient id="paint0_linear_2_113" x1="19.6239" y1="7.21616" x2="27.807" y2="30.9088" gradientUnits="userSpaceOnUse">
<stop stop-color="white" stop-opacity="0.596"/>
<stop offset="1" stop-color="#F7F7F7" stop-opacity="0.204"/>
</linearGradient>
</defs>
</svg>
