<svg width="32" height="32" viewBox="0 0 32 32" fill="none" xmlns="http://www.w3.org/2000/svg">
<path d="M16 0C15.3206 0 14.7692 0.551385 14.7692 1.23077V1.44231C14.7692 2.03062 14.355 2.5555 13.774 2.64904C13.4922 2.69458 13.2132 2.74733 12.9375 2.8101C12.3664 2.94056 11.7889 2.61723 11.5649 2.07692L11.4832 1.88462C11.2235 1.25692 10.5039 0.957827 9.875 1.21875C9.24731 1.47844 8.94821 2.198 9.20914 2.82692L9.29087 3.02404C9.51733 3.56558 9.33623 4.20667 8.83654 4.51683C8.59531 4.66698 8.35996 4.82429 8.12981 4.98798C7.65227 5.3289 6.99169 5.25131 6.57692 4.83654L6.42789 4.6875C5.94665 4.20627 5.1675 4.20627 4.6875 4.6875C4.2075 5.16873 4.2075 5.94789 4.6875 6.42789L4.83654 6.57692C5.25131 6.99169 5.3289 7.65104 4.98798 8.12981C4.82429 8.35996 4.66698 8.59531 4.51683 8.83654C4.20667 9.33623 3.5644 9.5185 3.02163 9.29327L2.82692 9.21154C2.19923 8.95185 1.47727 9.24971 1.21635 9.8774C0.956654 10.5051 1.25452 11.2247 1.88221 11.4856L2.07452 11.5649C2.61483 11.7889 2.94056 12.3664 2.8101 12.9375C2.74733 13.2132 2.69217 13.4922 2.64663 13.774C2.55433 14.3537 2.03062 14.7692 1.44231 14.7692H1.23077C0.551385 14.7692 0 15.3206 0 16C0 16.6794 0.551385 17.2308 1.23077 17.2308H1.44231C2.03062 17.2308 2.5555 17.645 2.64904 18.226C2.69458 18.5078 2.74733 18.7868 2.8101 19.0625C2.94056 19.6336 2.61723 20.2111 2.07692 20.4351L1.88462 20.5168C1.25692 20.7765 0.957827 21.4961 1.21875 22.125C1.47844 22.7527 2.198 23.0518 2.82692 22.7909L3.02404 22.7091C3.56681 22.4839 4.20785 22.665 4.51923 23.1635C4.66938 23.4047 4.82546 23.6412 4.99038 23.8726C5.33131 24.3501 5.25371 25.0107 4.83894 25.4255L4.6875 25.5745C4.20627 26.0558 4.20627 26.8349 4.6875 27.3149C5.16873 27.7949 5.94789 27.7961 6.42789 27.3149L6.57933 27.1659C6.9941 26.7511 7.65227 26.6711 8.12981 27.012C8.36119 27.1769 8.59771 27.3354 8.83894 27.4856C9.3374 27.7957 9.5209 28.438 9.29567 28.9808L9.21394 29.1755C8.95425 29.8032 9.25212 30.5251 9.87981 30.7861C10.5075 31.0458 11.2271 30.7479 11.488 30.1202L11.5673 29.9279C11.7913 29.3876 12.3688 29.0618 12.9399 29.1923C13.2156 29.2551 13.4946 29.3102 13.7764 29.3558C14.3537 29.4456 14.7692 29.9694 14.7692 30.5577V30.7692C14.7692 31.4486 15.3206 32 16 32C16.6794 32 17.2308 31.4486 17.2308 30.7692V30.5577C17.2308 29.9694 17.645 29.4445 18.226 29.351C18.5078 29.3054 18.7868 29.2527 19.0625 29.1899C19.6336 29.0594 20.2111 29.3828 20.4351 29.9231L20.5168 30.1154C20.7765 30.7431 21.4961 31.0422 22.125 30.7813C22.7527 30.5216 23.0518 29.802 22.7909 29.1731L22.7091 28.976C22.4839 28.4332 22.665 27.7922 23.1635 27.4808C23.4047 27.3306 23.6412 27.1745 23.8726 27.0096C24.3501 26.6687 25.0107 26.7463 25.4255 27.1611L25.5745 27.3125C26.0558 27.7937 26.8349 27.7937 27.3149 27.3125C27.7949 26.8313 27.7961 26.0521 27.3149 25.5721L27.1659 25.4207C26.7511 25.0059 26.6711 24.3477 27.012 23.8702C27.1769 23.6388 27.3354 23.4023 27.4856 23.1611C27.7957 22.6626 28.438 22.4791 28.9808 22.7043L29.1755 22.7861C29.8032 23.0458 30.5251 22.7479 30.7861 22.1202C31.0458 21.4925 30.7479 20.7729 30.1202 20.512L29.9279 20.4327C29.3876 20.2087 29.0618 19.6312 29.1923 19.0601C29.2551 18.7844 29.3102 18.5054 29.3558 18.2236C29.4456 17.6463 29.9694 17.2308 30.5577 17.2308H30.7692C31.4486 17.2308 32 16.6794 32 16C32 15.3206 31.4486 14.7692 30.7692 14.7692H30.5577C29.9694 14.7692 29.4445 14.355 29.351 13.774C29.3054 13.4922 29.2527 13.2132 29.1899 12.9375C29.0594 12.3664 29.3828 11.7889 29.9231 11.5649L30.1154 11.4832C30.7431 11.2235 31.0422 10.5039 30.7813 9.875C30.5216 9.24731 29.802 8.94821 29.1731 9.20914L28.976 9.29087C28.4332 9.5161 27.7922 9.335 27.4808 8.83654C27.3306 8.59531 27.1745 8.35879 27.0096 8.1274C26.6687 7.64987 26.7463 6.98929 27.1611 6.57452L27.3125 6.42548C27.7937 5.94425 27.7937 5.1651 27.3125 4.6851C26.8313 4.20387 26.0521 4.20387 25.5721 4.6851L25.4231 4.83654C25.0083 5.25131 24.3477 5.33131 23.8702 4.99038C23.6388 4.82546 23.4023 4.66698 23.1611 4.51683C22.6626 4.20667 22.4815 3.5644 22.7067 3.02163L22.7885 2.82692C23.0482 2.19923 22.7503 1.47727 22.1226 1.21635C21.4949 0.956654 20.7753 1.25452 20.5144 1.88221L20.4327 2.07452C20.2087 2.61483 19.6312 2.94056 19.0601 2.8101C18.7844 2.74733 18.5054 2.69217 18.2236 2.64663C17.6451 2.55433 17.2308 2.03062 17.2308 1.44231V1.23077C17.2308 0.551385 16.6794 0 16 0ZM16 6.15385C21.0199 6.15385 25.1552 9.91369 25.762 14.7692H18.1274C17.9117 14.3957 17.6017 14.0853 17.2283 13.8693C16.8549 13.6533 16.4314 13.5392 16 13.5385C15.9992 13.5385 15.9984 13.5385 15.9976 13.5385L12.1803 6.92308C13.3551 6.42797 14.6452 6.15385 16 6.15385ZM10.0553 8.16346L13.8702 14.7692C13.6535 15.1432 13.5391 15.5677 13.5385 16C13.5399 16.4306 13.6543 16.8534 13.8702 17.226L10.0529 23.8341C7.68791 22.0357 6.15385 19.2001 6.15385 16C6.15385 12.7987 7.68878 9.9618 10.0553 8.16346ZM18.1298 17.2308H25.762C25.1552 22.0863 21.0199 25.8462 16 25.8462C14.6452 25.8462 13.3551 25.572 12.1803 25.0769L15.9976 18.4615C15.9984 18.4615 15.9992 18.4615 16 18.4615C16.4318 18.4612 16.8558 18.3473 17.2297 18.1313C17.6035 17.9152 17.9139 17.6047 18.1298 17.2308Z" fill="#F8F8F8"/>
</svg>
