<svg width="43" height="42" viewBox="0 0 43 42" fill="none" xmlns="http://www.w3.org/2000/svg">
<g filter="url(#filter0_f_2_101)">
<g filter="url(#filter1_df_2_101)">
<path d="M21 36.3957C29.5028 36.3957 36.3957 29.5028 36.3957 21C36.3957 12.4972 29.5028 5.60432 21 5.60432C12.4972 5.60432 5.60432 12.4972 5.60432 21C5.60432 29.5028 12.4972 36.3957 21 36.3957Z" fill="#FA9E42"/>
</g>
<path d="M21 40.2806C31.6484 40.2806 40.2806 31.6484 40.2806 21C40.2806 10.3516 31.6484 1.71942 21 1.71942C10.3516 1.71942 1.71942 10.3516 1.71942 21C1.71942 31.6484 10.3516 40.2806 21 40.2806Z" stroke="#FA9E42" stroke-width="1.43885" stroke-linecap="round" stroke-dasharray="0.14 9.5"/>
<g filter="url(#filter2_f_2_101)">
<path d="M19.3554 17.9496C24.7411 15.089 27.7877 10.286 26.1601 7.22178C24.5326 4.15754 18.8472 3.99244 13.4615 6.853C8.07587 9.71357 5.02931 14.5166 6.65686 17.5808C8.28441 20.645 13.9698 20.8101 19.3554 17.9496Z" fill="#F8E36F"/>
</g>
</g>
<defs>
<filter id="filter0_f_2_101" x="0.71223" y="0.712228" width="40.5755" height="40.5755" filterUnits="userSpaceOnUse" color-interpolation-filters="sRGB">
<feFlood flood-opacity="0" result="BackgroundImageFix"/>
<feBlend mode="normal" in="SourceGraphic" in2="BackgroundImageFix" result="shape"/>
<feGaussianBlur stdDeviation="0.143885" result="effect1_foregroundBlur_2_101"/>
</filter>
<filter id="filter1_df_2_101" x="2.72662" y="1.57554" width="39.4245" height="39.4245" filterUnits="userSpaceOnUse" color-interpolation-filters="sRGB">
<feFlood flood-opacity="0" result="BackgroundImageFix"/>
<feColorMatrix in="SourceAlpha" type="matrix" values="0 0 0 0 0 0 0 0 0 0 0 0 0 0 0 0 0 0 127 0" result="hardAlpha"/>
<feOffset dx="1.43885" dy="0.28777"/>
<feGaussianBlur stdDeviation="2.15827"/>
<feColorMatrix type="matrix" values="0 0 0 0 0 0 0 0 0 0 0 0 0 0 0 0 0 0 0.25 0"/>
<feBlend mode="normal" in2="BackgroundImageFix" result="effect1_dropShadow_2_101"/>
<feBlend mode="normal" in="SourceGraphic" in2="effect1_dropShadow_2_101" result="shape"/>
<feGaussianBlur stdDeviation="0.28777" result="effect2_foregroundBlur_2_101"/>
</filter>
<filter id="filter2_f_2_101" x="3.34092" y="1.93339" width="26.1351" height="20.9358" filterUnits="userSpaceOnUse" color-interpolation-filters="sRGB">
<feFlood flood-opacity="0" result="BackgroundImageFix"/>
<feBlend mode="normal" in="SourceGraphic" in2="BackgroundImageFix" result="shape"/>
<feGaussianBlur stdDeviation="1.43885" result="effect1_foregroundBlur_2_101"/>
</filter>
</defs>
</svg>
