<svg width="38" height="37" viewBox="0 0 38 37" fill="none" xmlns="http://www.w3.org/2000/svg">
<path d="M1.9 19.6892H9.5C9.5 17.1697 10.5009 14.7533 12.2825 12.9717C14.0641 11.1901 16.4804 10.1892 19 10.1892C21.5196 10.1892 23.9359 11.1901 25.7175 12.9717C27.4991 14.7533 28.5 17.1697 28.5 19.6892H36.1C36.6039 19.6892 37.0872 19.8894 37.4435 20.2457C37.7998 20.602 38 21.0853 38 21.5892C38 22.0931 37.7998 22.5764 37.4435 22.9327C37.0872 23.289 36.6039 23.4892 36.1 23.4892H1.9C1.39609 23.4892 0.912816 23.289 0.556497 22.9327C0.200178 22.5764 0 22.0931 0 21.5892C0 21.0853 0.200178 20.602 0.556497 20.2457C0.912816 19.8894 1.39609 19.6892 1.9 19.6892ZM24.7 19.6892C24.7 18.1775 24.0995 16.7277 23.0305 15.6587C21.9616 14.5897 20.5117 13.9892 19 13.9892C17.4883 13.9892 16.0384 14.5897 14.9695 15.6587C13.9005 16.7277 13.3 18.1775 13.3 19.6892H24.7ZM19 0.689209L23.541 7.18721C22.135 6.67421 20.596 6.38921 19 6.38921C17.404 6.38921 15.865 6.67421 14.459 7.18721L19 0.689209ZM2.546 10.1892L10.45 9.52421C9.27077 10.5203 8.26861 11.7087 7.486 13.0392C6.65 14.4452 6.175 15.8892 5.909 17.3902L2.546 10.1892ZM35.435 10.1892L32.072 17.3902C31.5344 14.3135 29.934 11.523 27.55 9.50521L35.435 10.1892ZM20.349 27.8592L26.258 33.7682C26.4339 33.9441 26.5734 34.1529 26.6686 34.3828C26.7638 34.6126 26.8128 34.8589 26.8128 35.1077C26.8128 35.3565 26.7638 35.6028 26.6686 35.8326C26.5734 36.0625 26.4339 36.2713 26.258 36.4472C26.0821 36.6231 25.8733 36.7626 25.6434 36.8578C25.4136 36.953 25.1673 37.002 24.9185 37.002C24.6697 37.002 24.4234 36.953 24.1936 36.8578C23.9637 36.7626 23.7549 36.6231 23.579 36.4472L19 31.8682L14.421 36.4472C14.2451 36.6231 14.0363 36.7626 13.8064 36.8578C13.5766 36.953 13.3303 37.002 13.0815 37.002C12.8327 37.002 12.5864 36.953 12.3566 36.8578C12.1267 36.7626 11.9179 36.6231 11.742 36.4472C11.5661 36.2713 11.4266 36.0625 11.3314 35.8326C11.2362 35.6028 11.1872 35.3565 11.1872 35.1077C11.1872 34.8589 11.2362 34.6126 11.3314 34.3828C11.4266 34.1529 11.5661 33.9441 11.742 33.7682L17.651 27.8592C18.05 27.4792 18.506 27.2892 19 27.2892C19.494 27.2892 19.95 27.4792 20.349 27.8592Z" fill="#F8F8F8"/>
</svg>
