<svg width="40" height="38" viewBox="0 0 40 38" fill="none" xmlns="http://www.w3.org/2000/svg">
<path d="M2 20H10C10 17.3478 11.0536 14.8043 12.9289 12.9289C14.8043 11.0536 17.3478 9.99999 20 9.99999C22.6522 9.99999 25.1957 11.0536 27.0711 12.9289C28.9464 14.8043 30 17.3478 30 20H38C38.5304 20 39.0391 20.2107 39.4142 20.5858C39.7893 20.9609 40 21.4696 40 22C40 22.5304 39.7893 23.0391 39.4142 23.4142C39.0391 23.7893 38.5304 24 38 24H2C1.46957 24 0.960863 23.7893 0.58579 23.4142C0.210717 23.0391 3.8147e-06 22.5304 3.8147e-06 22C3.8147e-06 21.4696 0.210717 20.9609 0.58579 20.5858C0.960863 20.2107 1.46957 20 2 20ZM26 20C26 18.4087 25.3679 16.8826 24.2426 15.7574C23.1174 14.6321 21.5913 14 20 14C18.4087 14 16.8826 14.6321 15.7574 15.7574C14.6321 16.8826 14 18.4087 14 20H26ZM20 -7.62939e-06L24.78 6.83999C23.3 6.29999 21.68 5.99999 20 5.99999C18.32 5.99999 16.7 6.29999 15.22 6.83999L20 -7.62939e-06ZM2.68 9.99999L11 9.29999C9.7587 10.3485 8.70381 11.5995 7.88 13C7 14.48 6.5 16 6.22 17.58L2.68 9.99999ZM37.3 9.99999L33.76 17.58C33.1941 14.3413 31.5095 11.404 29 9.27999L37.3 9.99999ZM21.42 37.42L27.64 31.2C28.42 30.42 28.42 29.14 27.64 28.36C27.455 28.1746 27.2352 28.0275 26.9933 27.9271C26.7513 27.8268 26.4919 27.7751 26.23 27.7751C25.9681 27.7751 25.7087 27.8268 25.4668 27.9271C25.2248 28.0275 25.005 28.1746 24.82 28.36L20 33.18L15.18 28.36C14.995 28.1746 14.7752 28.0275 14.5333 27.9271C14.2913 27.8268 14.0319 27.7751 13.77 27.7751C13.5081 27.7751 13.2487 27.8268 13.0068 27.9271C12.7648 28.0275 12.545 28.1746 12.36 28.36C11.58 29.14 11.58 30.42 12.36 31.2L18.58 37.42C19 37.8 19.48 38 20 38C20.52 38 21 37.8 21.42 37.42Z" fill="#F8F8F8"/>
</svg>
