<svg width="27" height="44" viewBox="0 0 27 44" fill="none" xmlns="http://www.w3.org/2000/svg">
<path d="M13.6094 27.4331V12.1303H7.98437V27.4303C6.0114 28.4541 4.64594 30.4959 4.64594 32.8725C4.67018 34.4883 5.32901 36.0297 6.48015 37.1638C7.63128 38.2979 9.18232 38.9338 10.7983 38.9339C12.4143 38.9341 13.9654 38.2987 15.1168 37.1648C16.2682 36.0309 16.9274 34.4897 16.952 32.8739C16.952 30.4974 15.588 28.4555 13.6108 27.4345L13.6094 27.4331ZM17.8281 7.38C17.8281 3.50438 14.6725 0.348755 10.7969 0.348755C6.92125 0.348755 3.76562 3.50579 3.76562 7.38V25.2773C2.71123 26.2411 1.86956 27.4142 1.29447 28.7218C0.719373 30.0294 0.423502 31.4426 0.425779 32.8711C0.425779 38.5889 5.08047 43.245 10.7983 43.245C16.5161 43.245 21.1694 38.5903 21.1694 32.8711C21.1694 29.9377 19.9347 27.2039 17.8295 25.2745V7.38282L17.8281 7.38ZM18.3555 32.8753C18.3525 34.8787 17.555 36.7991 16.1381 38.2153C14.7211 39.6315 12.8002 40.4278 10.7969 40.4297C8.79375 40.4271 6.87342 39.6302 5.45701 38.2138C4.04059 36.7974 3.2437 34.877 3.24109 32.8739C3.24109 30.3497 4.50109 28.0322 6.58234 26.633V7.38282C6.58234 5.05829 8.47093 3.16407 10.7969 3.16407C13.1228 3.16407 15.0156 5.05688 15.0156 7.38282V26.6344C16.0432 27.3189 16.8857 28.2466 17.4683 29.3351C18.051 30.4237 18.3557 31.6407 18.3555 32.8753ZM20.057 12.1303L26.3852 15.7838V8.47969L20.057 12.1303Z" fill="#F8F8F8"/>
</svg>
